<?xml version="1.0" encoding="UTF-8" standalone="no"?>
<!DOCTYPE svg PUBLIC "-//W3C//DTD SVG 1.1//EN" "http://www.w3.org/Graphics/SVG/1.1/DTD/svg11.dtd">
<svg width="100%" height="100%" viewBox="0 0 1362 1560" version="1.1" xmlns="http://www.w3.org/2000/svg" xmlns:xlink="http://www.w3.org/1999/xlink" xml:space="preserve" xmlns:serif="http://www.serif.com/" style="fill-rule:evenodd;clip-rule:evenodd;stroke-linejoin:round;stroke-miterlimit:2;">
    <g transform="matrix(1,0,0,1,-111.251,-48.3474)">
        <g transform="matrix(1,0,0,1,-962.598,-412.542)">
            <g id="Curve" transform="matrix(1.01814,0,0,1.01814,386.254,28.1346)">
                <path d="M754.406,765.346L871.144,765.346L871.144,899.956L696.191,798.947L754.406,765.346ZM1933.41,765.346L1991.61,798.946L1816.83,899.882L1816.83,765.346L1933.41,765.346ZM1115.14,557.13L1343.99,425.043L1573.19,557.373L1573.19,615.966L1505.78,615.966L1505.78,683.497L1438.25,683.497L1438.25,724.182L1250.09,724.182L1250.09,683.497L1182.56,683.497L1182.56,615.966L1115.14,615.966L1115.14,557.13ZM1006.57,724.421L804.093,724.421L804.093,589.358L1074.22,589.358L1074.22,656.89L1141.63,656.89L1141.63,724.421L1209.16,724.421L1209.16,859.485L1074.1,859.485L1074.1,791.953L1006.57,791.953L1006.57,724.421ZM1614.11,589.358L1884.24,589.358L1884.24,724.421L1681.76,724.421L1681.76,791.953L1614.23,791.953L1614.23,859.485L1479.17,859.485L1479.17,724.421L1546.7,724.421L1546.7,656.89L1614.11,656.89L1614.11,589.358ZM675.342,1582.96L675.342,835.053L871.144,948.099L871.144,1062.08L1141.51,1062.08L1141.51,1534.8L871.144,1534.8L871.144,1669.87L1323.14,1669.87L1323.14,1956.87L675.342,1582.96ZM2012.45,835.054L2012.45,1582.96L1364.83,1956.87L1364.83,1669.87L1816.83,1669.87L1816.83,1534.8L1546.7,1534.8L1546.7,1062.08L1816.83,1062.08L1816.83,948.028L2012.45,835.054Z"/>
            </g>
        </g>
    </g>
</svg>
