<?xml version="1.0" encoding="UTF-8" standalone="no"?><!DOCTYPE svg PUBLIC "-//W3C//DTD SVG 1.1//EN" "http://www.w3.org/Graphics/SVG/1.1/DTD/svg11.dtd"><svg width="100%" height="100%" viewBox="0 0 795 901" version="1.1" xmlns="http://www.w3.org/2000/svg" xmlns:xlink="http://www.w3.org/1999/xlink" xml:space="preserve" xmlns:serif="http://www.serif.com/" style="fill-rule:evenodd;clip-rule:evenodd;stroke-linejoin:round;stroke-miterlimit:2;"><rect x="-1.677" y="-19.5" width="797.604" height="115.533"/><rect x="200.358" y="-0" width="137.825" height="972"/><path d="M449.999,462.815l3.111,-271.186c88.391,1.014 159.35,62.543 158.491,137.429c-0.859,74.885 -73.211,134.771 -161.602,133.757Z"/><path d="M449.999,822.048l3.111,-271.186c88.391,1.014 159.35,62.543 158.491,137.429c-0.859,74.885 -73.211,134.77 -161.602,133.757Z"/><path d="M580.709,503.282c101.094,11.932 183.169,96.077 183.169,196.956c0,100.878 -82.075,185.023 -183.169,196.955c81.859,-22.153 148.318,-102.779 148.318,-196.955c0,-94.176 -66.459,-174.803 -148.318,-196.956Z"/><path d="M580.709,109.37c101.094,11.932 183.169,96.078 183.169,196.956c0,100.879 -82.075,185.024 -183.169,196.956c81.859,-22.153 148.318,-102.78 148.318,-196.956c0,-94.176 -66.459,-174.802 -148.318,-196.956Z"/></svg>