<?xml version="1.0" encoding="UTF-8" standalone="no"?>
<!DOCTYPE svg PUBLIC "-//W3C//DTD SVG 1.1//EN" "http://www.w3.org/Graphics/SVG/1.1/DTD/svg11.dtd">
<svg width="100%" height="100%" viewBox="0 0 1362 1560" version="1.1" xmlns="http://www.w3.org/2000/svg" xmlns:xlink="http://www.w3.org/1999/xlink" xml:space="preserve" xmlns:serif="http://www.serif.com/" style="fill-rule:evenodd;clip-rule:evenodd;stroke-linejoin:round;stroke-miterlimit:2;">
    <g transform="matrix(1,0,0,1,-1899.02,-48.2743)">
        <g transform="matrix(1,0,0,1,-0.745032,0)">
            <g transform="matrix(1,0,0,1,0.745032,6)">
                <rect x="2098.38" y="344.085" width="962.843" height="962.598" style="fill:rgb(255,207,105);"/>
            </g>
        </g>
        <g transform="matrix(1,0,0,1,-0.745032,0)">
            <g id="Curve" transform="matrix(1.01814,0,0,1.01814,1212.17,-384.481)">
                <path d="M1006.57,724.421L804.093,724.421L804.093,589.358L1074.22,589.358L1074.22,656.89L1141.63,656.89L1141.63,724.421L1209.16,724.421L1209.16,859.485L1074.1,859.485L1074.1,791.953L1006.57,791.953L1006.57,724.421ZM1614.11,589.358L1884.24,589.358L1884.24,724.421L1681.76,724.421L1681.76,791.953L1614.23,791.953L1614.23,859.485L1479.17,859.485L1479.17,724.421L1546.7,724.421L1546.7,656.89L1614.11,656.89L1614.11,589.358Z" style="fill:rgb(49,43,53);"/>
            </g>
        </g>
        <g transform="matrix(1,0,0,1,-0.745032,0)">
            <g id="Left" transform="matrix(1,0,0,1,0.745032,0)">
                <path d="M1899.02,1227.2L1899.02,465.724L2098.38,580.822L2098.38,1315.68L2558.57,1315.68L2558.57,1607.89L1899.02,1227.2Z" style="fill:rgb(90,63,43);"/>
            </g>
        </g>
        <g transform="matrix(1,0,0,1,-0.745032,0)">
            <g id="Right" transform="matrix(1,0,0,1,0.745032,0)">
                <path d="M3260.39,465.726L3260.39,1227.2L2601.02,1607.89L2601.02,1315.68L3061.22,1315.68L3061.22,580.749L3260.39,465.726Z" style="fill:rgb(90,63,43);"/>
            </g>
        </g>
        <g transform="matrix(1,0,0,1,-0.745032,0)">
            <g id="Top" transform="matrix(1,0,0,1,0.745032,0)">
                <path d="M1979.52,394.752L2098.38,394.752L2098.38,531.805L1920.25,428.963L1979.52,394.752ZM3179.91,394.752L3239.17,428.962L3061.22,531.729L3061.22,394.752L3179.91,394.752ZM2346.8,182.758L2579.8,48.274L2813.16,183.006L2813.16,242.662L2744.52,242.662L2744.52,311.419L2675.77,311.419L2675.77,352.841L2484.19,352.841L2484.19,311.419L2415.44,311.419L2415.44,242.662L2346.8,242.662L2346.8,182.758Z" style="fill:rgb(76,114,65);"/>
                <clipPath id="_clip1">
                    <path d="M1979.52,394.752L2098.38,394.752L2098.38,531.805L1920.25,428.963L1979.52,394.752ZM3179.91,394.752L3239.17,428.962L3061.22,531.729L3061.22,394.752L3179.91,394.752ZM2346.8,182.758L2579.8,48.274L2813.16,183.006L2813.16,242.662L2744.52,242.662L2744.52,311.419L2675.77,311.419L2675.77,352.841L2484.19,352.841L2484.19,311.419L2415.44,311.419L2415.44,242.662L2346.8,242.662L2346.8,182.758Z"/>
                </clipPath>
                <g clip-path="url(#_clip1)">
                    <path d="M2346.8,182.758L2579.8,48.274L2813.16,183.006L2813.16,242.662L2744.52,242.662L2744.52,311.419L2675.77,311.419L2675.77,352.841L2484.19,352.841L2484.19,311.419L2415.44,311.419L2415.44,242.662L2346.8,242.662L2346.8,182.758Z" style="fill:rgb(40,149,59);"/>
                    <path d="M3179.91,394.752L3239.17,428.962L3061.22,531.729L3061.22,394.752L3179.91,394.752Z" style="fill:rgb(40,149,59);"/>
                    <path d="M1979.52,394.752L2098.38,394.752L2098.38,531.805L1920.25,428.963L1979.52,394.752Z" style="fill:rgb(40,149,59);"/>
                </g>
            </g>
        </g>
        <g transform="matrix(1,0,0,1,-0.745032,0)">
            <g transform="matrix(1,0,0,1,0.745032,0)">
                <path d="M3061.22,696.87L3061.22,1178.17L2786.29,1178.17L2786.29,834.469L2923.89,834.469L2923.89,696.87L3061.22,696.87Z"/>
            </g>
        </g>
        <g transform="matrix(1,0,0,1,-0.745032,0)">
            <g transform="matrix(1,0,0,1,0.745032,0)">
                <path d="M2236.05,834.469L2373.65,834.469L2373.65,1178.17L2098.38,1178.17L2098.38,696.87L2236.05,696.87L2236.05,834.469Z"/>
            </g>
        </g>
        <g transform="matrix(1,0,0,1,-0.745032,0)">
            <g transform="matrix(0.499863,0,0,0.499863,1187.89,245.546)">
                <rect x="2098.38" y="902.897" width="275.272" height="275.272" style="fill:rgb(129,199,255);"/>
            </g>
        </g>
        <g transform="matrix(1,0,0,1,-0.745032,0)">
            <g transform="matrix(0.499863,0,0,0.499863,1738.14,245.546)">
                <rect x="2098.38" y="902.897" width="275.272" height="275.272" style="fill:rgb(129,199,255);"/>
            </g>
        </g>
    </g>
</svg>
